<svg xmlns="http://www.w3.org/2000/svg" viewBox="0 0 256 256" role="img" aria-labelledby="ncpm-logo-title">
  <title id="ncpm-logo-title">NCPM</title>
  <defs>
    <linearGradient id="tile" x1="42" y1="25" x2="205" y2="231" gradientUnits="userSpaceOnUse">
      <stop stop-color="#10699a" />
      <stop offset="0.22" stop-color="#0b3f70" />
      <stop offset="1" stop-color="#06172f" />
    </linearGradient>
    <linearGradient id="bar-blue" x1="60" y1="77" x2="96" y2="186" gradientUnits="userSpaceOnUse">
      <stop stop-color="#63efff" />
      <stop offset="0.5" stop-color="#0bbaf1" />
      <stop offset="1" stop-color="#0876e7" />
    </linearGradient>
    <linearGradient id="bar-teal" x1="117" y1="50" x2="151" y2="206" gradientUnits="userSpaceOnUse">
      <stop stop-color="#65f3ff" />
      <stop offset="0.52" stop-color="#10cdd5" />
      <stop offset="1" stop-color="#13d68c" />
    </linearGradient>
    <linearGradient id="bar-green" x1="172" y1="105" x2="203" y2="185" gradientUnits="userSpaceOnUse">
      <stop stop-color="#63f3f3" />
      <stop offset="1" stop-color="#10d792" />
    </linearGradient>
    <filter id="shadow" x="-30%" y="-20%" width="160%" height="160%">
      <feDropShadow dx="0" dy="5" stdDeviation="5" flood-color="#020b18" flood-opacity="0.72" />
    </filter>
  </defs>
  <rect x="15" y="15" width="226" height="226" rx="52" fill="url(#tile)" stroke="#1587bb" stroke-width="3" />
  <rect x="27" y="27" width="202" height="202" rx="43" fill="none" stroke="#3edff0" stroke-opacity="0.16" stroke-width="2" />
  <g filter="url(#shadow)" stroke="#55eff4" stroke-opacity="0.72" stroke-width="2">
    <rect x="56" y="78" width="40" height="111" rx="20" fill="url(#bar-blue)" />
    <rect x="108" y="49" width="40" height="158" rx="20" fill="url(#bar-teal)" />
    <rect x="160" y="106" width="40" height="83" rx="20" fill="url(#bar-green)" />
  </g>
  <g fill="none" stroke="#fff" stroke-linecap="round" stroke-opacity="0.34" stroke-width="3">
    <path d="M66 92c5-7 11-9 19-8" />
    <path d="M118 64c5-7 11-9 19-8" />
    <path d="M170 120c5-6 11-8 19-7" />
  </g>
</svg>
